<svg xmlns="http://www.w3.org/2000/svg" viewBox="0 0 373.84 166.39"><defs><style>.cls-1,.cls-3{fill:#083831;}.cls-2{font-size:105.26px;fill:#14b8a6;}.cls-2,.cls-3{font-family:MADENZRegular, MADENZ;}.cls-3{font-size:61.02px;}.cls-4{letter-spacing:-0.02em;}</style></defs><g id="Layer_2" data-name="Layer 2"><g id="Background"><path class="cls-1" d="M3.64,33.27l29-20C48.22,2.48,67.47-2.44,86.06,1.18c1.53.29,3.08.65,4.65,1.06a83.22,83.22,0,0,1,20,8.51c7.19,4,18.43,10.43,27,23A53.83,53.83,0,0,1,144.12,46a50.08,50.08,0,0,1,2.63,20.26c-1.57,16.82-13.49,28-16.86,31.18-16.42,15.4-41.18,20.86-41.18,20.86h0l-23-17,36.2-20,7.07-7.5c4.24-9.08,3.42-16.25,2.76-19.5C108.91,40.22,96,33.2,89.71,29.76c-4.24-2.3-10.18-5.44-18-5a30.47,30.47,0,0,0-12,3.5,141.81,141.81,0,0,0-29,19l-8,6Z"/><path class="cls-1" d="M83.71,65.48l-44.45,26c-5.77,3.37-9.75,9.43-9.73,16.11a18.74,18.74,0,0,0,.63,4.76c4.66,17.23,34.53,27,34.53,27h0A21.27,21.27,0,0,0,75.31,142c2.82-.09,5.3-.78,9.39-2.62a82.23,82.23,0,0,0,16.56-10l12.47-11h0l24,12-6,7h0l-26.2,18.49a57.66,57.66,0,0,1-33.65,10.55h-.35a67.37,67.37,0,0,1-24.86-5,129.77,129.77,0,0,1-24-13.51c-1.1-.78-2.17-1.56-3.21-2.35C3.65,133.52-4.1,113,2.18,94.14c.42-1.27.91-2.55,1.46-3.83,5.24-12.08,14.2-18.86,21-24a86.14,86.14,0,0,1,32-15h0l27,14Z"/><text class="cls-2" transform="translate(167.73 94.65)">NV</text><text class="cls-3" transform="translate(159.09 148.96)"><tspan class="cls-4">B</tspan><tspan x="57.49" y="0">YTE</tspan></text></g></g></svg>