<svg xmlns="http://www.w3.org/2000/svg" viewBox="0 0 26.13 26.16"><defs><style>.cls-1{fill:#457c4f;}.cls-2{fill:#174d93;}.cls-3{fill:#d70f10;}</style></defs><g id="Layer_2" data-name="Layer 2"><g id="Layer_1-2" data-name="Layer 1"><path class="cls-1" d="M8,22.94c.11,0,.22.06.33.11l1.17.48a6.4,6.4,0,0,0,.62.2c.33.1.66.2,1,.27s.84.15,1.26.23h0c.39,0,.78,0,1.16,0a6.86,6.86,0,0,0,1.5-.2c.36-.09.72-.15,1.07-.25a11.93,11.93,0,0,0,1.77-.61,8.88,8.88,0,0,0,1.87-1.07,9.19,9.19,0,0,0,.75-.65c.27-.26.53-.53.79-.8a6,6,0,0,0,.65-.85c.15-.22.28-.45.41-.68a4.35,4.35,0,0,1,.49-.72A2.88,2.88,0,0,1,24,17.59a1.25,1.25,0,0,1,1.39.18,2.08,2.08,0,0,1,.61.82,2.2,2.2,0,0,1,.18.95,5.68,5.68,0,0,1,0,.59,1.78,1.78,0,0,1-.14.5,4,4,0,0,1-.46.81l-.46.65a2.2,2.2,0,0,1-.2.23c-.24.25-.47.5-.72.73A9.87,9.87,0,0,1,23,24c-.42.28-.83.55-1.26.8a8.38,8.38,0,0,1-1.34.67,9.59,9.59,0,0,1-1.29.39l-1,.2c-.25,0-.51.06-.77.09a18.12,18.12,0,0,1-1.95,0,2.52,2.52,0,0,1-.54-.08l-1.21-.27a11.89,11.89,0,0,1-1.16-.35,17.33,17.33,0,0,1-1.92-.75,11.71,11.71,0,0,1-2-1.12c-.2-.14-.38-.31-.57-.47A.12.12,0,0,1,8,22.94Z"></path><path class="cls-2" d="M24.2,14.52a.7.7,0,0,1-.12-.36c0-.17-.06-.34-.08-.51s0-.15,0-.22c0-.28-.06-.56-.12-.84s-.16-.8-.27-1.19a10.91,10.91,0,0,0-.72-1.85,8.87,8.87,0,0,0-.94-1.46c-.22-.28-.47-.53-.7-.79l-.63-.64c-.18-.18-.38-.35-.57-.51l-.58-.46a8.81,8.81,0,0,0-1.58-1,7.14,7.14,0,0,0-1.19-.46c-.44-.12-.88-.24-1.32-.33a5.64,5.64,0,0,0-1.16-.12c-.3,0-.62,0-.92,0a3.74,3.74,0,0,1-1.4-.38,1.51,1.51,0,0,1-.8-1,1.34,1.34,0,0,1,.08-.74,2.13,2.13,0,0,1,.41-.68A2.64,2.64,0,0,1,12.75.13,2.2,2.2,0,0,1,13.42,0a6.29,6.29,0,0,1,1,0c.12,0,.24,0,.37,0s.45.06.67.11a8.74,8.74,0,0,1,1.73.56c.25.1.48.21.72.33a14.76,14.76,0,0,1,1.6.89,9,9,0,0,1,1.76,1.5,10.56,10.56,0,0,1,1,1.17,16.33,16.33,0,0,1,1,1.64,8.26,8.26,0,0,1,.36.94c.16.43.24.87.37,1.3.08.27.12.54.18.81s.07.38.1.56.06.38.09.57.07.51.1.77c0,.07,0,.15,0,.23a13.47,13.47,0,0,1,.05,1.68c0,.16,0,.33-.05.5a3.6,3.6,0,0,1-.13.73Z"></path><path class="cls-3" d="M8.76,4.65a.12.12,0,0,1-.07.15L8,5.31a8.43,8.43,0,0,0-1.11.86C6.6,6.44,6.3,6.71,6,7a10.12,10.12,0,0,0-.88,1.08,9.91,9.91,0,0,0-.63,1c-.16.31-.28.64-.41,1A14.14,14.14,0,0,0,3.5,12c0,.22-.09.45-.13.68s-.09.52-.12.78a4.75,4.75,0,0,0,0,.53c0,.14,0,.28,0,.42A7.58,7.58,0,0,0,3.36,16c0,.21.07.41.12.61a10.51,10.51,0,0,0,.83,2.19,5.19,5.19,0,0,1,.43,1,3,3,0,0,1,.1,1,1.36,1.36,0,0,1-.36.83A.94.94,0,0,1,4,22a2.4,2.4,0,0,1-2.18-.38,2.83,2.83,0,0,1-.89-1.11,8.19,8.19,0,0,1-.6-1.61,7.66,7.66,0,0,1-.24-1.25c0-.16,0-.31,0-.46a11.18,11.18,0,0,1,0-1.53c0-.29,0-.58,0-.86a2.48,2.48,0,0,1,0-.27,8.64,8.64,0,0,1,.34-1.74A12.31,12.31,0,0,1,1.13,11a14,14,0,0,1,1-1.62,3.7,3.7,0,0,1,.37-.42c.23-.26.48-.5.72-.75A19.06,19.06,0,0,1,4.87,6.73,17.43,17.43,0,0,1,6.41,5.68a10.49,10.49,0,0,1,1.84-.91,2.62,2.62,0,0,1,.4-.11Z"></path></g></g></svg>